<svg id="visual" viewBox="0 0 900 600" width="900" height="600" xmlns="http://www.w3.org/2000/svg" xmlns:xlink="http://www.w3.org/1999/xlink" version="1.1"><g><g transform="translate(423 512)"><path d="M56.4 -19C63.5 3.6 53.2 31.3 32.8 46.4C12.4 61.5 -18 64.1 -38 50.1C-58 36.1 -67.5 5.6 -59.4 -18.4C-51.3 -42.3 -25.7 -59.6 -0.5 -59.4C24.6 -59.2 49.2 -41.6 56.4 -19Z" stroke="#F7760E" fill="none" stroke-width="3"></path></g><g transform="translate(776 115)"><path d="M25.4 -9.1C28.5 1.4 23.7 13.7 14.2 20.9C4.8 28.1 -9.3 30.2 -18.3 23.9C-27.4 17.7 -31.3 3.1 -27.4 -8.4C-23.5 -20 -11.7 -28.5 -0.3 -28.4C11.1 -28.3 22.2 -19.6 25.4 -9.1Z" stroke="#F7760E" fill="none" stroke-width="3"></path></g><g transform="translate(645 294)"><path d="M44.9 -13.8C51 4.4 44 27.7 27.6 40.1C11.1 52.6 -14.7 54.2 -31.5 42.3C-48.3 30.4 -55.9 4.9 -49.1 -14.2C-42.4 -33.3 -21.2 -45.9 -0.9 -45.6C19.4 -45.3 38.7 -32.1 44.9 -13.8Z" stroke="#F7760E" fill="none" stroke-width="3"></path></g><g transform="translate(167 370)"><path d="M30.4 -10.3C34.4 2.5 29.2 17.8 18.2 26.1C7.1 34.4 -9.8 35.6 -21.2 27.7C-32.7 19.7 -38.6 2.6 -34.2 -10.8C-29.7 -24.2 -14.8 -34 -0.8 -33.7C13.2 -33.5 26.3 -23.2 30.4 -10.3Z" stroke="#F7760E" fill="none" stroke-width="3"></path></g><g transform="translate(734 447)"><path d="M56 -16.6C62.8 2.5 51.6 29 32.8 41.9C14 54.8 -12.4 54.1 -29.4 41.5C-46.4 28.8 -54.1 4.4 -47.7 -14.4C-41.2 -33.1 -20.6 -46.1 2 -46.8C24.7 -47.5 49.3 -35.7 56 -16.6Z" stroke="#F7760E" fill="none" stroke-width="3"></path></g><g transform="translate(493 2)"><path d="M46.7 -15.6C52.6 2.9 43.9 25.7 28.3 36.4C12.8 47.1 -9.7 45.7 -24.8 34.6C-40 23.5 -47.8 2.7 -42.4 -15.1C-37.1 -32.9 -18.5 -47.7 0.9 -48C20.4 -48.4 40.8 -34.1 46.7 -15.6Z" stroke="#F7760E" fill="none" stroke-width="3"></path></g><g transform="translate(83 125)"><path d="M48.6 -16.8C54.7 2.9 45.6 26.6 28.4 39.2C11.1 51.8 -14.3 53.2 -31.9 41.1C-49.5 29 -59.2 3.3 -52.5 -17.1C-45.9 -37.6 -23 -52.8 -0.8 -52.5C21.3 -52.2 42.6 -36.5 48.6 -16.8Z" stroke="#F7760E" fill="none" stroke-width="3"></path></g></g></svg>