<svg id="visual" viewBox="0 0 900 600" width="900" height="600" xmlns="http://www.w3.org/2000/svg" xmlns:xlink="http://www.w3.org/1999/xlink" version="1.1"><g><g transform="translate(509 471)"><path d="M0 -65.7L56.9 -32.8L56.9 32.8L0 65.7L-56.9 32.8L-56.9 -32.8Z" fill="none" stroke="#FCAF3C" stroke-width="2"></path></g><g transform="translate(783 408)"><path d="M0 -58L50.2 -29L50.2 29L0 58L-50.2 29L-50.2 -29Z" fill="none" stroke="#FCAF3C" stroke-width="2"></path></g><g transform="translate(841 564)"><path d="M0 -56L48.5 -28L48.5 28L0 56L-48.5 28L-48.5 -28Z" fill="none" stroke="#FCAF3C" stroke-width="2"></path></g><g transform="translate(373 319)"><path d="M0 -48L41.6 -24L41.6 24L0 48L-41.6 24L-41.6 -24Z" stroke="#FCAF3C" fill="none" stroke-width="2"></path></g><g transform="translate(217 479)"><path d="M0 -50L43.3 -25L43.3 25L0 50L-43.3 25L-43.3 -25Z" stroke="#FCAF3C" fill="none" stroke-width="2"></path></g><g transform="translate(384 97)"><path d="M0 -55L47.6 -27.5L47.6 27.5L0 55L-47.6 27.5L-47.6 -27.5Z" stroke="#FCAF3C" fill="none" stroke-width="2"></path></g><g transform="translate(151 108)"><path d="M0 -54L46.8 -27L46.8 27L0 54L-46.8 27L-46.8 -27Z" stroke="#FCAF3C" fill="none" stroke-width="2"></path></g><g transform="translate(616 367)"><path d="M0 -54L46.8 -27L46.8 27L0 54L-46.8 27L-46.8 -27Z" stroke="#FCAF3C" fill="none" stroke-width="2"></path></g></g></svg>